# xmcd
#
# Track frame offsets:
#	150
#	11422
#	24012
#	44291
#	57627
#	68652
#	82735
#	92909
#	109636
#	121370
#	131866
#	142289
#	156437
#	169608
#
# Disc length: 2447 seconds
#
# Revision: 0
# Processed by: cddbd v1.5.1PL0 Copyright (c) Steve Scherf et al.
# Submitted via: audiograbber 1.83.01
#
DISCID=b8098d0e
DTITLE=Echo Valley - The Way It Is
DYEAR=2004
DGENRE=Bluegrass
TTITLE0=Down the ROad
TTITLE1=Shenandoah Waltz
TTITLE2=John Henry Blues
TTITLE3=God Can't Hear You Pray
TTITLE4=Salty Dog Blues
TTITLE5=Rose Colored Glasses
TTITLE6=Up On the Blueridge
TTITLE7=New Freedom Bell
TTITLE8=Sittin' On Top of the World
TTITLE9=Jordan
TTITLE10=Crazy Heart
TTITLE11=Next Sunday Darlin'
TTITLE12=Talking to Myself
TTITLE13=John Hardy
EXTD=
EXTT0=
EXTT1=
EXTT2=
EXTT3=
EXTT4=
EXTT5=
EXTT6=
EXTT7=
EXTT8=
EXTT9=
EXTT10=
EXTT11=
EXTT12=
EXTT13=
PLAYORDER=
